<svg class="icon" viewBox="0 0 1024 1024" xmlns="http://www.w3.org/2000/svg" width="32" height="32"><path d="M618.608 343.104a13.76 13.76 0 0 0-17.28-9.328l-.064.016a16.816 16.816 0 0 1-19.776-7.328 82.112 82.112 0 0 0-56.512-37.424c-44.928-7.2-87.104 23.776-94.24 69.168-6.112 39.008 15.648 75.952 50.368 90.16 4.224 1.728 10.176 4.288 15.168 5.072 51.616 8.032 102.56-23.264 118.208-75.232 3.12-10.4 4.688-21.024 4.704-31.36a14.224 14.224 0 0 0-.576-3.744" fill="#8a8a8a"/><path d="M434.368 371.776c-27.776-19.264-87.184-47.04-111.776-29.392-25.216 18.112-27.712 94.656-15.408 159.472l127.184-130.08z" fill="#8a8a8a"/><path d="M408.56 391.744c-14.672-11.296-56.064-33.728-69.232-23.2-13.712 10.96-14.176 56.928-6.08 99.568l75.312-76.368z" fill="#8a8a8a"/><path d="M408.56 391.744c-14.672-11.296-56.064-33.728-69.232-23.2-13.712 10.96-14.176 56.928-6.08 99.568l75.312-76.368zm181.088-19.968c27.776-19.264 87.184-47.04 111.776-29.392 25.2 18.112 27.712 94.656 15.408 159.472l-127.184-130.08z" fill="#8a8a8a"/><path d="M615.456 391.744c14.672-11.296 56.064-33.728 69.232-23.2 13.712 10.96 14.16 56.928 6.08 99.568l-75.312-76.368z" fill="#8a8a8a"/><path d="M512 364.848c-129.456 0-216.672 73.856-216.672 204.608C295.328 683.68 388.48 720 512 720s216.672-36.336 216.672-150.544c0-130.752-87.2-204.608-216.672-204.608" fill="#8a8a8a"/><path d="M512.128 617.6c-42.96 0-102.08 49.504-198.384 32.224-29.216-5.232-43.92-24.912-41.488-39.424 1.856-10.992 11.264-14.032 17.456-13.648-5.6-48.672 5.872-238.608 222.416-238.608 216.544 0 228.048 189.936 222.416 238.608 6.208-.384 15.232 1.344 17.184 12.32 2.464 13.824-12 35.52-41.216 40.752-96.288 17.28-155.408-32.208-198.384-32.208" fill="#8a8a8a"/><path d="M457.712 555.392c-8.752-12.432-21.344-20.928-34.848-23.584a48.528 48.528 0 0 0-38.24 8.512 52.624 52.624 0 0 0-20.48 33.6c-2.24 13.6.512 28.224 8.592 41.12-12.048-9.552-18.96-25.824-18.112-42.032a55.888 55.888 0 0 1 22.704-42.368c13.488-10.24 32.256-13.12 48-7.888 15.92 5.024 28.288 17.984 32.384 32.64" fill="#8a8a8a"/><path d="M463.04 578.976c0-29.504-23.28-53.424-51.968-53.424-28.704 0-51.968 23.92-51.968 53.424 0 29.504 23.264 53.408 51.968 53.408 28.688 0 51.952-23.904 51.952-53.408" fill="#8a8a8a"/><path d="M371.488 578.4c0-26.176 18.944-47.408 42.32-47.408 23.36 0 42.32 21.232 42.32 47.408 0 26.192-18.944 47.424-42.32 47.424-23.36 0-42.32-21.232-42.32-47.424" fill="#8a8a8a"/><path d="M385.952 578.4c0-17.232 12.48-31.2 27.84-31.2 15.408 0 27.872 13.968 27.872 31.2 0 17.248-12.48 31.216-27.856 31.216-15.392 0-27.856-13.968-27.856-31.2" fill="#8a8a8a"/><path d="M410.384 557.024a13.792 13.792 0 0 1-13.904 13.696 13.792 13.792 0 0 1-13.888-13.696c0-7.568 6.224-13.712 13.888-13.712 7.68 0 13.904 6.144 13.904 13.712m155.312-1.632c4.096-14.656 16.48-27.616 32.368-32.64 15.76-5.216 34.512-2.352 48.016 7.888a55.888 55.888 0 0 1 22.704 42.368c.848 16.208-6.064 32.48-18.112 42.032a59.28 59.28 0 0 0 8.608-41.12 52.608 52.608 0 0 0-20.48-33.6 48.528 48.528 0 0 0-38.256-8.512c-13.52 2.656-26.08 11.152-34.848 23.584" fill="#8a8a8a"/><path d="M560.368 578.976c0-29.504 23.28-53.424 51.968-53.424 28.704 0 51.968 23.92 51.968 53.424 0 29.504-23.264 53.408-51.968 53.408-28.688 0-51.968-23.904-51.968-53.408" fill="#8a8a8a"/><path d="M651.92 578.4c0-26.176-18.944-47.408-42.32-47.408s-42.32 21.232-42.32 47.408c0 26.192 18.944 47.424 42.32 47.424s42.32-21.232 42.32-47.424" fill="#8a8a8a"/><path d="M637.456 578.4c0-17.232-12.48-31.2-27.856-31.2-15.392 0-27.872 13.968-27.872 31.2 0 17.248 12.48 31.216 27.872 31.216s27.856-13.968 27.856-31.2" fill="#8a8a8a"/><path d="M578.624 557.024c0 7.568 6.224 13.696 13.888 13.696 7.68 0 13.904-6.128 13.904-13.696a13.808 13.808 0 0 0-13.904-13.712 13.808 13.808 0 0 0-13.888 13.712M553.6 401.92s-25.968-22.56-41.6-22.56c-15.632 0-41.584 22.56-41.584 22.56s-30.88 24.096-30.88 42.944c0 18.88 30.88 42.96 30.88 42.96s25.952 22.56 41.6 22.56c15.616 0 41.568-22.56 41.568-22.56s30.896-24.096 30.896-42.96c0-18.848-30.88-42.944-30.88-42.944" fill="#8a8a8a"/><path d="m514 440.88 10.08 11.008a2.688 2.688 0 0 0 2 .864h14.24c2.32 0 3.552-2.72 1.984-4.416l-28.32-30.88a2.72 2.72 0 0 0-3.968 0l-28.32 30.88a2.64 2.64 0 0 0 1.984 4.416h14.24c.768 0 1.488-.32 2-.864L510 440.88a2.72 2.72 0 0 1 4 0m-2 192.224c6.352 0 13.232-6.32 15.712-9.84 5.584-7.984-.08-10.4-1.92-11.2-2.048-.88-6.832-2.304-13.792-2.176-6.96-.128-11.744 1.28-13.792 2.176-1.84.8-7.504 3.216-1.92 11.2 2.48 3.52 9.376 9.856 15.712 9.84m37.44 19.536a5.552 5.552 0 0 0-4.608-4.096c-13.488-1.856-32.832-1.856-32.832-1.856s-19.328 0-32.816 1.856a5.504 5.504 0 0 0-4.624 4.08c-4.368 16.64 1.824 29.872 12.096 37.92a41.6 41.6 0 0 0 25.344 8.8 41.6 41.6 0 0 0 25.376-8.8c10.24-8.064 16.448-21.28 12.064-37.92" fill="#8a8a8a"/><path d="M512 684.8c9.6 0 18.448 2.144 25.376 5.76a41.6 41.6 0 0 1-25.376 8.8 41.6 41.6 0 0 1-25.344-8.8c6.928-3.616 15.744-5.76 25.344-5.76m32.832-36.256c1.28.16 2.4.768 3.232 1.632-1.184 2.416-7.088 8.048-36.064 8.048-28.96 0-34.88-5.632-36.064-8.048a5.536 5.536 0 0 1 3.248-1.632c13.488-1.856 32.816-1.856 32.816-1.856s19.344 0 32.832 1.856" fill="#8a8a8a"/></svg>